<svg width="202" height="175" viewBox="0 0 202 175" fill="none" xmlns="http://www.w3.org/2000/svg">
<g clip-path="url(#clip0_71_144)">
<path d="M28.3318 124.194C43.3916 124.194 55.6 111.985 55.6 96.9257C55.6 81.8659 43.3916 69.6575 28.3318 69.6575C13.272 69.6575 1.06366 81.8659 1.06366 96.9257C1.06366 111.985 13.272 124.194 28.3318 124.194Z" fill="#F0F0F0"/>
<path d="M28.4067 96.9255H28.4817L29.8302 174.235H26.9834L28.4067 96.9255Z" fill="#F0F0F0"/>
<path d="M86.8763 137.736C97.8605 137.736 106.765 128.832 106.765 117.848C106.765 106.864 97.8605 97.9592 86.8763 97.9592C75.8922 97.9592 66.9877 106.864 66.9877 117.848C66.9877 128.832 75.8922 137.736 86.8763 137.736Z" fill="#F0F0F0"/>
<path d="M86.9309 117.848H86.9857L87.9692 174.235H85.8928L86.9309 117.848Z" fill="#F0F0F0"/>
<path d="M61.828 90.5106C86.8218 90.5106 107.083 70.2491 107.083 45.2553C107.083 20.2615 86.8218 0 61.828 0C36.8342 0 16.5728 20.2615 16.5728 45.2553C16.5728 70.2491 36.8342 90.5106 61.828 90.5106Z" fill="#5D6640"/>
<path opacity="0.1" d="M95.2431 15.0283C99.4644 24.9027 100.037 35.9564 96.8587 46.2141C93.6804 56.4718 86.9582 65.2652 77.8933 71.0229C68.8284 76.7806 58.0116 79.1274 47.3757 77.6439C36.7398 76.1605 26.9779 70.9435 19.8344 62.9252C22.4131 68.958 26.2726 74.3581 31.1454 78.7513C36.0183 83.1444 41.788 86.4257 48.0549 88.3676C54.3217 90.3095 60.9359 90.8658 67.4391 89.9978C73.9422 89.1298 80.1789 86.8582 85.7171 83.3406C91.2552 79.823 95.9624 75.1434 99.5124 69.6259C103.062 64.1085 105.37 57.8852 106.277 51.3873C107.183 44.8893 106.665 38.272 104.76 31.9939C102.855 25.7157 99.6076 19.9269 95.2431 15.0283Z" fill="black"/>
<path d="M61.7037 45.2551H61.5792L59.3412 173.562H64.0659L61.7037 45.2551Z" fill="#77604B"/>
<path d="M201.708 174.194H0.245985C0.180746 174.194 0.118178 174.169 0.0720472 174.122C0.025916 174.076 0 174.014 0 173.948C0 173.883 0.025916 173.821 0.0720472 173.775C0.118178 173.728 0.180746 173.703 0.245985 173.703H201.708C201.773 173.703 201.836 173.728 201.882 173.775C201.928 173.821 201.954 173.883 201.954 173.948C201.954 174.014 201.928 174.076 201.882 174.122C201.836 174.169 201.773 174.194 201.708 174.194Z" fill="#CACACA"/>
<path d="M166.486 171.704H164.076L162.929 162.408H166.486L166.486 171.704Z" fill="#FFB6B6"/>
<path d="M167.1 174.04L159.329 174.04V173.941C159.329 173.139 159.648 172.37 160.215 171.803C160.783 171.235 161.552 170.917 162.354 170.917L167.1 170.917L167.1 174.04Z" fill="#2F2E41"/>
<path d="M177.661 171.704H175.251L174.105 162.408H177.662L177.661 171.704Z" fill="#FFB6B6"/>
<path d="M178.276 174.04L170.505 174.04V173.941C170.505 173.139 170.824 172.37 171.391 171.803C171.958 171.235 172.727 170.917 173.53 170.917L178.276 170.917L178.276 174.04Z" fill="#2F2E41"/>
<path d="M137.207 171.704H139.617L140.064 162.358L137.206 162.408L137.207 171.704Z" fill="#FFB6B6"/>
<path d="M136.592 170.917L141.338 170.917C142.14 170.917 142.91 171.236 143.477 171.803C144.044 172.37 144.363 173.139 144.363 173.941V174.04L136.592 174.04L136.592 170.917Z" fill="#2F2E41"/>
<path d="M127.464 171.704H129.874L130.352 162.358L127.464 162.408L127.464 171.704Z" fill="#FFB6B6"/>
<path d="M126.849 170.917L131.595 170.917C132.398 170.917 133.167 171.236 133.734 171.803C134.302 172.37 134.62 173.139 134.62 173.941V174.04L126.849 174.04L126.849 170.917Z" fill="#2F2E41"/>
<path d="M148.328 132.318C148.238 132.085 148.2 131.835 148.216 131.586C148.233 131.336 148.305 131.093 148.425 130.874C148.546 130.655 148.713 130.466 148.916 130.318C149.118 130.171 149.35 130.07 149.595 130.022L157.823 116.794L160.604 119.264L151.641 131.49C151.695 131.908 151.593 132.331 151.355 132.678C151.118 133.026 150.761 133.274 150.352 133.376C149.944 133.478 149.512 133.427 149.139 133.232C148.766 133.037 148.477 132.712 148.328 132.318Z" fill="#FFB6B6"/>
<path d="M185.935 137.214C185.706 137.113 185.502 136.963 185.338 136.775C185.173 136.587 185.052 136.365 184.983 136.124C184.913 135.884 184.897 135.632 184.936 135.385C184.975 135.138 185.067 134.902 185.207 134.695L181.672 119.523L185.385 119.303L187.692 134.286C188.025 134.544 188.252 134.915 188.33 135.328C188.408 135.742 188.331 136.17 188.114 136.531C187.898 136.892 187.556 137.161 187.154 137.287C186.753 137.413 186.319 137.387 185.935 137.214Z" fill="#FFB6B6"/>
<path d="M150.94 131.666C150.931 131.387 150.86 131.113 150.733 130.864C150.607 130.615 150.427 130.397 150.207 130.225C149.986 130.053 149.731 129.932 149.459 129.869C149.187 129.807 148.904 129.804 148.631 129.863L145.112 124.056L143.6 127.244L147.173 132.269C147.302 132.722 147.592 133.111 147.988 133.364C148.385 133.617 148.861 133.715 149.325 133.641C149.789 133.566 150.21 133.324 150.508 132.96C150.806 132.596 150.96 132.136 150.94 131.666Z" fill="#FFB6B6"/>
<path d="M121.536 137.74C121.701 137.514 121.813 137.254 121.866 136.98C121.92 136.706 121.912 136.423 121.844 136.152C121.776 135.881 121.65 135.629 121.474 135.412C121.298 135.195 121.076 135.019 120.825 134.897L121.623 128.155L118.47 129.737L118.195 135.898C118.018 136.333 118.007 136.819 118.164 137.262C118.322 137.705 118.636 138.076 119.048 138.303C119.459 138.53 119.94 138.598 120.399 138.494C120.858 138.39 121.262 138.122 121.536 137.74Z" fill="#FFB6B6"/>
<path d="M164.575 130.909L163.553 132.985L162.748 168.262L168.007 168.647L172.941 142.775L174.131 168.262L178.456 168.303L183.134 133.544L164.575 130.909Z" fill="#2F2E41"/>
<path d="M138.62 130.909L140.326 131.92C140.326 131.92 141.713 132.803 141.247 138.943C140.78 145.083 140.223 169.682 140.223 169.682H137.198L132.299 140.297L130.511 170L127.327 169.841C127.327 169.841 120.821 136.024 123.636 132.354L138.62 130.909Z" fill="#2F2E41"/>
<path d="M164.201 105.505L169.946 103.588L176.999 103.691L181.798 105.606L183.134 133.544C183.134 133.544 172.633 139.835 163.553 132.985L164.201 105.505Z" fill="#E4E4E4"/>
<path d="M164.201 105.259C164.201 105.259 161.935 104.993 160.672 108.754C159.409 112.516 156.069 117.604 156.069 117.604L159.722 121.031L167.03 110.895L164.201 105.259Z" fill="#E4E4E4"/>
<path d="M180.015 106.134L181.798 105.606C181.798 105.606 185.835 106.144 185.996 110.488C186.157 114.831 186.921 121.629 186.921 121.629L182.803 122.45L180.015 106.134Z" fill="#E4E4E4"/>
<path d="M122.606 109.181C122.606 109.181 130.905 106.513 137.601 109L137.053 121.917L141.184 131.992C141.184 131.992 128.052 137.085 123.676 132.805L124.953 122.713L122.606 109.181Z" fill="#5D6640"/>
<path d="M135.37 110.517L137.109 109C137.109 109 138.27 108.987 139.268 110.772C140.266 112.556 142.075 118.318 142.075 118.318L147.866 128.126L145.318 129.878L136.134 117.034L135.37 110.517Z" fill="#5D6640"/>
<path d="M122.914 109.818L123.032 109.008C123.032 109.008 119.799 109.248 119.525 112.364C119.251 115.479 118.251 133.062 118.251 133.062L121.45 133.699L124.632 115.653L122.914 109.818Z" fill="#5D6640"/>
<path d="M173.932 101.014C176.896 101.014 179.299 98.6112 179.299 95.6471C179.299 92.6831 176.896 90.2802 173.932 90.2802C170.968 90.2802 168.565 92.6831 168.565 95.6471C168.565 98.6112 170.968 101.014 173.932 101.014Z" fill="#FFB6B6"/>
<path d="M134.124 104.513L124.423 106.423C124.223 106.462 124.016 106.42 123.847 106.307C123.678 106.194 123.561 106.018 123.522 105.819L122.698 101.637C122.553 100.901 122.555 100.144 122.702 99.4083C122.85 98.673 123.141 97.974 123.559 97.3512C124.403 96.0934 125.712 95.2223 127.198 94.9297C128.685 94.637 130.226 94.9467 131.484 95.7907C132.742 96.6346 133.613 97.9437 133.905 99.4299L134.729 103.612C134.768 103.811 134.726 104.018 134.613 104.187C134.5 104.356 134.324 104.473 134.124 104.513Z" fill="#2F2E41"/>
<path d="M129.597 105.223C131.909 105.223 133.784 103.348 133.784 101.035C133.784 98.7227 131.909 96.848 129.597 96.848C127.284 96.848 125.41 98.7227 125.41 101.035C125.41 103.348 127.284 105.223 129.597 105.223Z" fill="#FFB6B6"/>
<path d="M135.313 99.587L129.381 100.755L129.152 99.9154L129.016 100.827L128.103 101.007L127.65 99.3426L127.379 101.149L125.612 101.497L125.595 101.414C125.365 100.238 125.611 99.0196 126.278 98.0249C126.945 97.0303 127.98 96.341 129.155 96.1082L129.991 95.9435C131.167 95.7134 132.386 95.959 133.38 96.6264C134.375 97.2937 135.064 98.3284 135.297 99.5034L135.313 99.587Z" fill="#2F2E41"/>
<path d="M130.376 106.062C130.331 106.07 130.286 106.075 130.24 106.076L125.745 106.165L124.331 98.9858L129.113 98.0442L129.022 98.2055C127.753 100.451 129.608 103.322 130.826 104.833C130.915 104.943 130.972 105.077 130.989 105.218C131.006 105.36 130.983 105.503 130.922 105.632C130.871 105.742 130.795 105.838 130.7 105.912C130.605 105.987 130.494 106.038 130.376 106.062Z" fill="#2F2E41"/>
<path d="M168.709 90.8088C169.365 90.6067 170.074 90.7069 170.744 90.8568L170.68 91.0195C172.279 90.0925 174.183 89.5798 175.997 89.9349C177.811 90.29 179.484 91.6269 179.923 93.4226C180.082 94.1403 180.092 94.8832 179.951 95.6049C179.76 96.6649 179.346 97.6724 178.738 98.5618C178.131 99.4512 177.342 100.202 176.424 100.766C176.194 100.905 175.84 101.005 175.704 100.773C175.55 100.51 175.898 100.242 176.002 99.955C176.115 99.6409 175.909 99.2924 175.64 99.0937C175.372 98.895 175.044 98.7918 174.763 98.6108C174.483 98.4082 174.248 98.1496 174.074 97.8514C173.899 97.5531 173.788 97.2218 173.748 96.8785C173.673 96.192 173.694 95.4984 173.811 94.8178C172.732 95.2124 171.597 95.4305 170.449 95.4639C170.043 95.5012 169.633 95.4365 169.258 95.2756C168.776 95.03 168.486 94.5316 168.222 94.0594C168.111 93.8617 168.001 93.664 167.89 93.4663C167.652 93.1124 167.507 92.7037 167.47 92.2786C167.47 91.5922 168.053 91.011 168.709 90.8088Z" fill="#2F2E41"/>
</g>
<defs>
<clipPath id="clip0_71_144">
<rect width="201.954" height="174.235" fill="white"/>
</clipPath>
</defs>
</svg>
